:SAMPLES-PER-SECOND 30
:FULLY-SPECIFIED
:DEGREES
1
root  70.7857 40.4673 0.329875 -122.742 -87.8329 122.538
RightUpLeg  -1.23078 -9.49193 -6.51333
RightLeg  5.71436 -9.81217 3.79135
RightFoot  -3.6924 0.00298697 -0.497545
RightToes  0.00048216 0.542163 -0.142577
Spine  6.57126 0.394798 -4.70005
Spine1  0.0916359 -0.474512 4.14065
HEad  -5.11618 -0.830925 1.32271
LeftShoulder1  0.822752 -1.80979 -7.8808
LeftArm  -19.3155 17.1843 -11.9403
LeftForeArm  20.4432 -3.00667 -0.210704
LeftHand  -0.25398 0.0180481 5.50724
RightShoulder  0.305742 -1.29348 6.12873
RightArm  -21.1585 -10.5027 5.87261
RightForeArm  -3.6484 4.86577 2.77123
RightHand  -2.74737 8.85398 -22.551
LeftUpLeg  -1.9706 3.23681 0.158716
LeftLeg  2.60415 11.3077 -3.59288
LeftFoot  -0.99094 -0.222008 2.58027
LeftToes  1.06247e-005 4.65855e-005 -8.18501e-006
2
root  70.7712 40.4657 0.329875 -122.59 -87.8407 122.38
RightUpLeg  -1.22012 -9.48226 -6.51162
RightLeg  5.76273 -9.84359 3.76724
RightFoot  -3.74118 0.0012081 -0.469915
RightToes  0.00048216 0.542163 -0.142577
Spine  6.5133 0.368353 -4.79602
Spine1  0.109895 -0.530192 4.28282
HEad  -5.18596 -0.893573 1.03369
LeftShoulder1  0.829112 -1.80854 -8.0172
LeftArm  -19.378 17.1955 -11.8211
LeftForeArm  20.5184 -2.92953 -0.15613
LeftHand  -0.25398 0.0180481 5.50724
RightShoulder  0.317764 -1.1813 5.95401
RightArm  -21.1918 -10.5996 5.97761
RightForeArm  -3.77474 4.90676 2.76742
RightHand  -2.77404 8.85411 -22.7597
LeftUpLeg  -1.95711 3.23784 0.161397
LeftLeg  2.62572 11.3099 -3.58102
LeftFoot  -1.03494 -0.218607 2.52735
LeftToes  1.06247e-005 4.65855e-005 -8.18501e-006
3
root  70.7481 40.4633 0.329223 -123.266 -87.8414 123.07
RightUpLeg  -1.2501 -9.46477 -6.48661
RightLeg  5.86815 -9.86115 3.73219
RightFoot  -3.79899 0.00357823 -0.506728
RightToes  0.00048216 0.542163 -0.142577
Spine  6.82603 0.445048 -4.90824
Spine1  -0.478811 -0.456681 4.33475
HEad  -5.19319 -1.22856 0.518795
LeftShoulder1  0.84153 -1.96089 -7.79349
LeftArm  -19.3879 17.3942 -11.8745
LeftForeArm  20.7735 -2.94605 -0.12534
LeftHand  -0.25398 0.0180481 5.50724
RightShoulder  0.307468 -1.28703 6.17963
RightArm  -21.004 -10.672 5.74762
RightForeArm  -4.07225 5.02213 2.83805
RightHand  -2.80098 8.81645 -23.0285
LeftUpLeg  -1.96244 3.24312 0.174021
LeftLeg  2.68154 11.3469 -3.55621
LeftFoot  -1.10525 -0.21709 2.50377
LeftToes  1.06247e-005 4.65855e-005 -8.18501e-006
4
root  70.7257 40.4614 0.326298 -123.544 -87.8547 123.37
RightUpLeg  -1.25702 -9.45441 -6.46266
RightLeg  5.89725 -9.84019 3.73295
RightFoot  -3.82969 0.00513404 -0.530894
RightToes  0.00048216 0.542163 -0.142577
Spine  7.4286 0.593406 -4.97089
Spine1  -1.45842 -0.274013 4.20397
HEad  -5.13386 -1.72054 0.130403
LeftShoulder1  0.845616 -2.17542 -7.22651
LeftArm  -19.2995 17.6446 -12.1587
LeftForeArm  21.0189 -3.09858 -0.174759
LeftHand  -0.25398 0.0180481 5.50724
RightShoulder  0.268616 -1.64732 6.83781
RightArm  -20.6307 -10.6605 5.20045
RightForeArm  -4.52924 5.1798 2.97675
RightHand  -2.80068 8.70311 -23.2013
LeftUpLeg  -1.98555 3.25285 0.189331
LeftLeg  2.76107 11.344 -3.52784
LeftFoot  -1.16097 -0.219123 2.53895
LeftToes  1.06247e-005 4.65855e-005 -8.18501e-006
5
root  70.7018 40.4618 0.322335 -122.164 -87.8957 121.984
RightUpLeg  -1.17137 -9.46236 -6.47314
RightLeg  5.84305 -9.86234 3.75739
RightFoot  -3.88204 -0.000754262 -0.439435
RightToes  0.00048216 0.542163 -0.142577
Spine  7.60517 0.621851 -5.08431
Spine1  -1.70811 -0.252827 4.22635
HEad  -5.26782 -1.84589 -0.0454716
LeftShoulder1  0.833518 -2.15929 -7.03771
LeftArm  -19.2655 17.6075 -12.3235
LeftForeArm  20.9861 -3.16976 -0.221788
LeftHand  -0.25398 0.0180481 5.50724
RightShoulder  0.240319 -1.86917 7.08825
RightArm  -20.5462 -10.6027 5.07505
RightForeArm  -5.00246 5.26001 3.0433
RightHand  -2.79106 8.55212 -23.3622
LeftUpLeg  -1.96279 3.26617 0.197917
LeftLeg  2.81142 11.2683 -3.5183
LeftFoot  -1.22111 -0.219368 2.54599
LeftToes  1.06247e-005 4.65855e-005 -8.18501e-006
